<?xml version="1.0" encoding="UTF-8" standalone="no"?>
<svg
   xmlns:dc="http://purl.org/dc/elements/1.1/"
   xmlns:cc="http://creativecommons.org/ns#"
   xmlns:rdf="http://www.w3.org/1999/02/22-rdf-syntax-ns#"
   xmlns:svg="http://www.w3.org/2000/svg"
   xmlns="http://www.w3.org/2000/svg"
   viewBox="0 0 1200 1200"
   height="1200"
   width="1200"
   xml:space="preserve"
   id="svg2"
   version="1.1"><metadata
     id="metadata8"><rdf:RDF><cc:Work
         rdf:about=""><dc:format>image/svg+xml</dc:format><dc:type
           rdf:resource="http://purl.org/dc/dcmitype/StillImage" /></cc:Work></rdf:RDF></metadata><defs
     id="defs6"><clipPath
       id="clipPath104"
       clipPathUnits="userSpaceOnUse"><path
         id="path102"
         d="M 0,900 H 900 V 0 H 0 Z" /></clipPath></defs><g
     transform="matrix(1.3333333,0,0,-1.3333333,0,1200)"
     id="g10"><path
       id="path12"
       style="fill:#ed2121;fill-opacity:1;fill-rule:nonzero;stroke:none"
       d="M 0.899,0 H 900 V 900 H 0.899 Z" /><text
       id="text16"
       style="font-variant:normal;font-weight:bold;font-stretch:normal;font-size:34.84729385px;font-family:CambridgeRoundW01-Bold;-inkscape-font-specification:CambridgeRoundW01-Bold;writing-mode:lr-tb;fill:#ffffff;fill-opacity:1;fill-rule:nonzero;stroke:none"
       transform="matrix(0.83556557,0.3867732,0.4268624,-0.92217487,234.5703,234.1387)"><tspan
         id="tspan14"
         y="0"
         x="0">R</tspan></text>
<text
       id="text20"
       style="font-variant:normal;font-weight:bold;font-stretch:normal;font-size:35.02841949px;font-family:CambridgeRoundW01-Bold;-inkscape-font-specification:CambridgeRoundW01-Bold;writing-mode:lr-tb;fill:#ffffff;fill-opacity:1;fill-rule:nonzero;stroke:none"
       transform="matrix(0.85922807,0.31739658,0.35029843,-0.94829289,253.5527,242.8408)"><tspan
         id="tspan18"
         y="0"
         x="0">E</tspan></text>
<text
       id="text24"
       style="font-variant:normal;font-weight:bold;font-stretch:normal;font-size:35.14114761px;font-family:CambridgeRoundW01-Bold;-inkscape-font-specification:CambridgeRoundW01-Bold;writing-mode:lr-tb;fill:#ffffff;fill-opacity:1;fill-rule:nonzero;stroke:none"
       transform="matrix(0.87344899,0.26595034,0.29351916,-0.96398673,270.6006,249.1406)"><tspan
         id="tspan22"
         y="0"
         x="0">S</tspan></text>
<text
       id="text28"
       style="font-variant:normal;font-weight:bold;font-stretch:normal;font-size:35.22121429px;font-family:CambridgeRoundW01-Bold;-inkscape-font-specification:CambridgeRoundW01-Bold;writing-mode:lr-tb;fill:#ffffff;fill-opacity:1;fill-rule:nonzero;stroke:none"
       transform="matrix(0.88333977,0.22263854,0.24571554,-0.97490106,288.8779,254.6963)"><tspan
         id="tspan26"
         y="0"
         x="0">T</tspan></text>
<text
       id="text32"
       style="font-variant:normal;font-weight:bold;font-stretch:normal;font-size:35.27843094px;font-family:CambridgeRoundW01-Bold;-inkscape-font-specification:CambridgeRoundW01-Bold;writing-mode:lr-tb;fill:#ffffff;fill-opacity:1;fill-rule:nonzero;stroke:none"
       transform="matrix(0.89029187,0.18586711,0.20513384,-0.98257489,305.208,258.9014)"><tspan
         id="tspan30"
         y="0"
         x="0">A</tspan></text>
<text
       id="text36"
       style="font-variant:normal;font-weight:bold;font-stretch:normal;font-size:35.32736969px;font-family:CambridgeRoundW01-Bold;-inkscape-font-specification:CambridgeRoundW01-Bold;writing-mode:lr-tb;fill:#ffffff;fill-opacity:1;fill-rule:nonzero;stroke:none"
       transform="matrix(0.89616633,0.14751169,0.16280295,-0.98906031,327.1514,263.5039)"><tspan
         id="tspan34"
         y="0"
         x="0">U</tspan></text>
<text
       id="text40"
       style="font-variant:normal;font-weight:bold;font-stretch:normal;font-size:35.36133957px;font-family:CambridgeRoundW01-Bold;-inkscape-font-specification:CambridgeRoundW01-Bold;writing-mode:lr-tb;fill:#ffffff;fill-opacity:1;fill-rule:nonzero;stroke:none"
       transform="matrix(0.9002148,0.11360713,0.1253827,-0.99352575,350.9268,267.3877)"><tspan
         id="tspan38"
         y="0"
         x="0">R</tspan></text>
<text
       id="text44"
       style="font-variant:normal;font-weight:bold;font-stretch:normal;font-size:35.38451767px;font-family:CambridgeRoundW01-Bold;-inkscape-font-specification:CambridgeRoundW01-Bold;writing-mode:lr-tb;fill:#ffffff;fill-opacity:1;fill-rule:nonzero;stroke:none"
       transform="matrix(0.90295991,0.08294023,0.09153721,-0.99655452,371.9512,270.0576)"><tspan
         id="tspan42"
         y="0"
         x="0">A</tspan></text>
<text
       id="text48"
       style="font-variant:normal;font-weight:bold;font-stretch:normal;font-size:35.40044022px;font-family:CambridgeRoundW01-Bold;-inkscape-font-specification:CambridgeRoundW01-Bold;writing-mode:lr-tb;fill:#ffffff;fill-opacity:1;fill-rule:nonzero;stroke:none"
       transform="matrix(0.90483621,0.0524033,0.05783544,-0.998626,395.2852,272.208)"><tspan
         id="tspan46"
         y="0"
         x="0">N</tspan></text>
<text
       id="text52"
       style="font-variant:normal;font-weight:bold;font-stretch:normal;font-size:35.40846634px;font-family:CambridgeRoundW01-Bold;-inkscape-font-specification:CambridgeRoundW01-Bold;writing-mode:lr-tb;fill:#ffffff;fill-opacity:1;fill-rule:nonzero;stroke:none"
       transform="matrix(0.90577774,0.02588646,0.02856944,-0.99966489,419.418,273.5693)"><tspan
         id="tspan50"
         y="0"
         x="0">T</tspan></text>
<text
       id="text56"
       style="font-variant:normal;font-weight:bold;font-stretch:normal;font-size:35.41078949px;font-family:CambridgeRoundW01-Bold;-inkscape-font-specification:CambridgeRoundW01-Bold;writing-mode:lr-tb;fill:#ffffff;fill-opacity:1;fill-rule:nonzero;stroke:none"
       transform="matrix(0.90604028,-0.0091667,-0.01011556,-0.99995798,446.8584,274.2354)"><tspan
         id="tspan54"
         y="0"
         x="0">A</tspan></text>
<text
       id="text60"
       style="font-variant:normal;font-weight:bold;font-stretch:normal;font-size:35.40553665px;font-family:CambridgeRoundW01-Bold;-inkscape-font-specification:CambridgeRoundW01-Bold;writing-mode:lr-tb;fill:#ffffff;fill-opacity:1;fill-rule:nonzero;stroke:none"
       transform="matrix(0.90543462,-0.03775116,-0.04166297,-0.99928717,470.335,274.0078)"><tspan
         id="tspan58"
         y="0"
         x="0">N</tspan></text>
<text
       id="text64"
       style="font-variant:normal;font-weight:bold;font-stretch:normal;font-size:35.39345169px;font-family:CambridgeRoundW01-Bold;-inkscape-font-specification:CambridgeRoundW01-Bold;writing-mode:lr-tb;fill:#ffffff;fill-opacity:1;fill-rule:nonzero;stroke:none"
       transform="matrix(0.90401466,-0.06751249,-0.07450813,-0.99771843,494.4629,273.0039)"><tspan
         id="tspan62"
         y="0"
         x="0">D</tspan></text>
<text
       id="text68"
       style="font-variant:normal;font-weight:bold;font-stretch:normal;font-size:35.36667633px;font-family:CambridgeRoundW01-Bold;-inkscape-font-specification:CambridgeRoundW01-Bold;writing-mode:lr-tb;fill:#ffffff;fill-opacity:1;fill-rule:nonzero;stroke:none"
       transform="matrix(0.90083667,-0.10740336,-0.11853531,-0.99421553,526.1123,270.4277)"><tspan
         id="tspan66"
         y="0"
         x="0">P</tspan></text>
<text
       id="text72"
       style="font-variant:normal;font-weight:bold;font-stretch:normal;font-size:35.34466553px;font-family:CambridgeRoundW01-Bold;-inkscape-font-specification:CambridgeRoundW01-Bold;writing-mode:lr-tb;fill:#ffffff;fill-opacity:1;fill-rule:nonzero;stroke:none"
       transform="matrix(0.89822603,-0.1313805,-0.14499783,-0.99133202,545.585,268.0693)"><tspan
         id="tspan70"
         y="0"
         x="0">I</tspan></text>
<text
       id="text76"
       style="font-variant:normal;font-weight:bold;font-stretch:normal;font-size:35.31562424px;font-family:CambridgeRoundW01-Bold;-inkscape-font-specification:CambridgeRoundW01-Bold;writing-mode:lr-tb;fill:#ffffff;fill-opacity:1;fill-rule:nonzero;stroke:none"
       transform="matrix(0.89476261,-0.15756199,-0.1738947,-0.9875091,558.8574,266.1826)"><tspan
         id="tspan74"
         y="0"
         x="0">Z</tspan></text>
<text
       id="text80"
       style="font-variant:normal;font-weight:bold;font-stretch:normal;font-size:35.2693367px;font-family:CambridgeRoundW01-Bold;-inkscape-font-specification:CambridgeRoundW01-Bold;writing-mode:lr-tb;fill:#ffffff;fill-opacity:1;fill-rule:nonzero;stroke:none"
       transform="matrix(0.88918599,-0.19219528,-0.21211627,-0.9813567,578.5225,262.7334)"><tspan
         id="tspan78"
         y="0"
         x="0">Z</tspan></text>
<text
       id="text84"
       style="font-variant:normal;font-weight:bold;font-stretch:normal;font-size:35.20822144px;font-family:CambridgeRoundW01-Bold;-inkscape-font-specification:CambridgeRoundW01-Bold;writing-mode:lr-tb;fill:#ffffff;fill-opacity:1;fill-rule:nonzero;stroke:none"
       transform="matrix(0.88174863,-0.2301934,-0.25405431,-0.9731449,598.0459,258.5098)"><tspan
         id="tspan82"
         y="0"
         x="0">E</tspan></text>
<text
       id="text88"
       style="font-variant:normal;font-weight:bold;font-stretch:normal;font-size:35.11983871px;font-family:CambridgeRoundW01-Bold;-inkscape-font-specification:CambridgeRoundW01-Bold;writing-mode:lr-tb;fill:#ffffff;fill-opacity:1;fill-rule:nonzero;stroke:none"
       transform="matrix(0.87078705,-0.27637656,-0.30502703,-0.96104942,615.6631,253.9756)"><tspan
         id="tspan86"
         y="0"
         x="0">R</tspan></text>
<text
       id="text92"
       style="font-variant:normal;font-weight:bold;font-stretch:normal;font-size:35.0084877px;font-family:CambridgeRoundW01-Bold;-inkscape-font-specification:CambridgeRoundW01-Bold;writing-mode:lr-tb;fill:#ffffff;fill-opacity:1;fill-rule:nonzero;stroke:none"
       transform="matrix(0.85666942,-0.32571531,-0.35947569,-0.94546789,635.6934,247.5322)"><tspan
         id="tspan90"
         y="0"
         x="0">I</tspan></text>
<text
       id="text96"
       style="font-variant:normal;font-weight:bold;font-stretch:normal;font-size:34.83121872px;font-family:CambridgeRoundW01-Bold;-inkscape-font-specification:CambridgeRoundW01-Bold;writing-mode:lr-tb;fill:#ffffff;fill-opacity:1;fill-rule:nonzero;stroke:none"
       transform="matrix(0.8334161,-0.39237787,-0.43305115,-0.91980412,648.0459,243.0967)"><tspan
         id="tspan94"
         y="0"
         x="0">A</tspan></text>
<g
       id="g98"><g
         clip-path="url(#clipPath104)"
         id="g100"><g
           transform="translate(404.6724,419.8799)"
           id="g106"><path
             id="path108"
             style="fill:#ffffff;fill-opacity:1;fill-rule:nonzero;stroke:none"
             d="m 0,0 c 1.529,1.466 2.296,3.339 2.296,5.618 0,2.084 -0.751,3.91 -2.248,5.472 -1.499,1.565 -3.388,2.346 -5.668,2.346 h -7.133 V -2.199 h 7.232 c 2.149,0 3.989,0.732 5.521,2.199" /></g><g
           transform="translate(408.2388,391.6387)"
           id="g110"><path
             id="path112"
             style="fill:#ffffff;fill-opacity:1;fill-rule:nonzero;stroke:none"
             d="m 0,0 c 1.563,1.53 2.345,3.437 2.345,5.717 0,1.042 -0.196,2.052 -0.587,3.03 -0.39,0.976 -0.961,1.822 -1.71,2.541 -0.749,0.715 -1.611,1.301 -2.589,1.758 -0.977,0.454 -2.051,0.683 -3.225,0.683 H -16.319 V -2.296 h 10.651 c 2.214,0 4.105,0.765 5.668,2.296" /></g><g
           transform="translate(516.0186,420.2217)"
           id="g114"><path
             id="path116"
             style="fill:#ffffff;fill-opacity:1;fill-rule:nonzero;stroke:none"
             d="m 0,0 c 1.367,1.303 2.052,3.029 2.052,5.18 0,2.084 -0.668,3.81 -2.003,5.178 -1.336,1.369 -3.079,2.052 -5.229,2.052 h -9.088 V -1.955 h 9.088 c 2.084,0 3.812,0.651 5.18,1.955" /></g><g
           transform="translate(701.5937,350.4092)"
           id="g118"><path
             id="path120"
             style="fill:#ffffff;fill-opacity:1;fill-rule:nonzero;stroke:none"
             d="m 0,0 c -0.749,1.18 -1.694,2.125 -2.839,2.836 -1.144,0.711 -2.494,1.158 -4.047,1.342 -1.553,0.181 -3.294,0.034 -5.223,-0.446 -3.645,-0.907 -7.088,-2.446 -10.332,-4.619 -3.245,-2.173 -6.08,-4.614 -8.507,-7.322 -2.429,-2.709 -4.296,-5.494 -5.606,-8.352 -0.48,-1.046 -0.85,-2.052 -1.117,-3.019 5.748,0.15 11.496,0.311 17.243,0.476 0.015,0.054 0.03,0.11 0.044,0.164 1.191,4.592 2.144,8.656 2.858,12.191 l 0.1,0.282 c 0.485,1.257 1.328,2.264 2.535,3.02 1.206,0.755 2.399,1.279 3.578,1.572 1.393,0.347 2.606,0.277 3.636,-0.204 1.031,-0.484 1.553,-1.437 1.565,-2.856 -0.205,-2.839 -0.409,-5.452 -0.613,-7.835 -0.174,-2.025 -0.343,-4.009 -0.511,-5.97 2.633,0.072 5.267,0.148 7.901,0.217 0.773,2.474 1.277,4.916 1.481,7.321 0.225,2.644 0.071,5.038 -0.463,7.182 C 1.311,-2.521 0.749,-1.18 0,0" /></g><g
           transform="translate(738.4521,353.9014)"
           id="g122"><path
             id="path124"
             style="fill:#ffffff;fill-opacity:1;fill-rule:nonzero;stroke:none"
             d="m 0,0 c -0.53,-1.071 -1.151,-2.521 -1.862,-4.348 -0.713,-1.829 -1.426,-3.996 -2.139,-6.506 -0.712,-2.512 -1.393,-5.212 -2.039,-8.105 -0.201,-0.79 -0.326,-1.318 -0.373,-1.587 -0.048,-0.266 -0.098,-0.408 -0.15,-0.421 l -0.024,-0.475 c 0.059,0 0.118,0.001 0.177,0.002 1.448,2.854 2.739,5.581 3.863,8.173 1.174,2.71 2.109,5.133 2.802,7.269 0.691,2.136 1.139,3.882 1.342,5.242 C 1.799,0.604 1.666,1.423 1.198,1.705 0.929,1.639 0.53,1.07 0,0" /></g><g
           transform="translate(724.0137,349.1572)"
           id="g126"><path
             id="path128"
             style="fill:none;stroke:#ffffff;stroke-width:3;stroke-linecap:butt;stroke-linejoin:miter;stroke-miterlimit:10;stroke-dasharray:none;stroke-opacity:1"
             d="m 0,0 c 0.559,7.695 -1.351,16.25 -9.498,18.898 -8.537,2.775 -19.292,-0.356 -27.054,-3.46 -10.985,-4.393 -20.996,-11.946 -28.714,-20.87 -7.125,-8.237 -15.167,-21.295 -10.95,-32.57 2.311,-6.178 7.825,-8.028 13.66,-5.076 5.655,2.861 8.854,9.262 11.191,14.852 -3.223,0.351 -8.21,1.473 -9.155,5.236 -0.947,3.771 1.706,8.499 3.677,11.533 4.781,7.353 12.51,13.564 20.957,16.068 3.981,1.18 8.605,1.515 11.905,-1.489 3.019,-2.748 3.851,-7.23 3.804,-11.136 -0.111,-9.263 -4.581,-18.755 -11.285,-25.077 1.204,8.079 1.896,16.212 2.546,24.351 0.247,3.092 1.597,7.978 -2.863,8.326 -3.111,0.242 -7.032,-2.003 -8.117,-4.941 -1.18,-3.191 -1.542,-6.941 -2.375,-10.251 -1.116,-4.425 -2.313,-8.831 -3.551,-13.223 -2.377,-8.43 -4.897,-16.822 -7.564,-25.164 -2.377,-7.437 -4.764,-14.942 -7.808,-22.138 -0.98,-2.317 -2.499,-5.436 1.065,-6.26 3.706,-0.855 8.223,0.953 11.564,2.377 3.055,1.303 7.086,3.138 8.952,6.037 1.471,2.286 1.942,6.145 2.594,8.932 0.878,3.753 1.624,7.536 2.3,11.331 0.356,1.998 0.69,4 1.007,6.005 0.245,1.546 0.033,1.602 1.208,2.339 0.942,0.593 2.42,0.799 3.462,1.262 7.98,3.537 14.405,10.483 19.161,17.635 C -4.669,-18.633 -0.743,-9.463 0,0 Z" /></g><g
           transform="translate(798.5156,323.8125)"
           id="g130"><path
             id="path132"
             style="fill:none;stroke:#ffffff;stroke-width:3;stroke-linecap:butt;stroke-linejoin:miter;stroke-miterlimit:10;stroke-dasharray:none;stroke-opacity:1"
             d="m 0,0 c -0.174,-0.674 -0.854,-3.535 -1.743,-3.591 -0.233,-0.014 0.287,3.986 0.015,4.443 -1.003,1.689 -3.055,0.556 -4.259,-0.327 0.298,0.972 0.273,1.785 1.133,1.998 C -4.351,2.649 -2.89,2.126 -2.445,2.01 -1.434,1.747 0.423,1.453 0,0 Z m -66.627,9.122 c 0.564,0.136 1.251,5.127 1.392,5.692 0.621,2.505 1.293,5.002 2.087,7.459 0.294,0.914 3.139,9.862 4.283,9.521 3.352,-1.001 -6.756,-21.482 -7.804,-23.536 0.014,0.284 0.005,0.582 0.042,0.864 z m 97.479,9.776 c -0.241,1.908 -1.983,2.984 -3.825,2.505 -1.641,-0.425 -2.382,-1.95 -2.837,-3.009 -1.75,-4.075 -3.473,-8.096 -5.84,-11.866 -0.13,8.143 -8.245,9.802 -14.814,10.144 2.159,2.329 4.678,8.501 0.665,10.536 -4.447,2.256 -10.042,-4.613 -11.983,-7.803 -1.234,-2.025 -2.204,-4.199 -2.845,-6.483 -0.329,-1.173 -0.651,-2.402 -0.684,-3.627 -0.026,-1.031 0.346,-2.009 0.136,-2.944 -0.518,-2.307 -2.399,-4.973 -3.542,-7.066 -0.758,-1.386 -2.257,-5.085 -4.094,-5.328 -0.347,-0.086 -0.175,10.223 -0.11,10.99 0.182,2.155 0.404,4.306 0.676,6.45 0.116,0.925 0.25,1.846 0.383,2.769 0.035,0.249 0.005,1.078 0.081,0.703 0.393,2.242 0.959,4.276 -1.96,4.189 -1.455,-0.043 -2.459,-0.231 -3.85,-0.369 -1.5,-0.148 -3.263,-0.099 -4.467,-1.159 -1.508,-1.329 -1.625,-3.974 -1.96,-5.824 -0.789,-4.362 -1.106,-8.087 -2.638,-12.358 -1.125,-3.134 -3.67,-10.39 -7.698,-10.749 0.904,0.569 1.087,3.857 1.319,4.839 0.618,2.622 1.245,5.268 1.672,7.929 0.635,3.971 1.019,8.819 -2.639,11.524 -3.676,2.718 -8.371,0.505 -11.165,-2.367 -0.95,-0.977 -3.077,-3.129 -2.56,-4.712 0.57,-1.744 2.964,-0.837 3.733,-1.877 0.868,-1.178 -0.464,-3.845 -0.777,-5.187 -0.549,-2.366 -0.717,-4.988 -1.807,-7.14 -1.787,-3.53 -4.891,-8.076 -9.416,-6.495 -2.647,0.925 -5.908,5.071 -4.423,7.716 1.796,3.198 4.897,6.418 7.133,9.606 5.805,8.275 10.038,17.435 11.647,27.458 0.977,6.086 1.947,22.455 -8.669,19.163 -8.715,-2.702 -13.223,-14.415 -16.026,-22.139 -3.392,-9.347 -5.682,-19.131 -6.401,-29.054 -0.679,-9.344 -0.812,-20.819 4.85,-28.831 2.701,-3.82 6.648,-5.885 11.362,-5.348 5.292,0.601 8.68,4.102 11.308,8.481 2.436,-4.862 7.742,-4.797 11.968,-2.233 4.439,2.692 7.176,7.815 9.049,12.486 1.246,-4.667 3.998,-9.604 9.569,-8.44 5.009,1.044 7.6,7.191 9.415,11.405 2.855,-11.983 17.604,-5.507 23.685,-0.22 9.221,8.018 14.706,19.842 17.883,31.436 0.067,0.074 0.588,1.549 0.496,2.299 z" /></g><g
           transform="translate(463.043,671.416)"
           id="g134"><path
             id="path136"
             style="fill:#ffffff;fill-opacity:1;fill-rule:nonzero;stroke:none"
             d="m 0,0 c -8.993,5.024 -17.799,1.283 -26.519,-2.279 -3.381,-1.382 -6.604,-3.003 -8.915,-5.947 -2.611,-3.325 -2.16,-6.208 -3.175,-9.993 -0.825,-3.073 0.41,-2.64 -3.423,-3.765 -2.764,-0.811 -5.531,-1.614 -8.294,-2.427 -4.342,-1.277 -9.183,-2.227 -13.3,-4.14 -7.485,-3.477 -8.936,-10.917 -8.76,-18.494 -10.993,2.633 -31.136,-2.509 -31.315,-16.394 -0.099,-7.629 2.424,-15.972 3.827,-23.44 1.5,-7.983 3.129,-15.93 4.025,-24.006 1.47,-13.24 4.456,-26.094 11.134,-37.753 3.336,-5.822 7.421,-11.187 12.121,-15.975 5.795,-5.905 5.611,-10.575 7.751,-18.298 -6.46,-0.591 -12.731,-2.441 -15.621,4.842 -3.417,8.607 -10.675,13.845 -15.642,21.702 -10.473,16.565 -11.21,35.472 -15.005,54.087 -3.748,18.379 -13.645,40.205 0.204,57.021 5.486,6.662 14.61,7.543 21.902,11.217 7.857,3.959 10.654,12.875 18.41,17.358 6.449,3.726 17.392,4.618 21.504,10.874 4.854,7.387 8.272,12.941 17.062,16.248 5.619,2.116 14.739,1.276 16.192,8.563 0.856,4.293 -0.388,9.498 -0.712,13.812 -0.435,5.775 -0.842,11.552 -1.255,17.329 -1.231,17.191 -7.842,40.363 4.307,55.107 5.809,7.049 14.408,9.029 22.979,10.862 8.862,1.896 17.539,0.681 24.801,-5.047 7.618,-6.007 10.07,-14.135 11.812,-23.277 2.111,-11.077 4.414,-22.116 6.696,-33.158 4.727,-22.868 8.854,-45.789 12.585,-68.839 0.903,-5.584 1.239,-11.772 2.846,-17.191 1.306,-4.409 4.817,-7.868 7.735,-11.305 6.569,-7.738 13.442,-15.389 16.454,-25.301 5.816,-19.133 3.373,-44.247 -2.424,-63.129 -2.985,-9.721 -8.342,-18.423 -12.675,-27.561 -2.208,-4.655 -3.958,-9.269 -4.267,-14.455 -0.202,-3.386 0.807,-7.287 -2.811,-8.987 -7.508,-3.528 -12.781,2.014 -12.947,9.089 -0.201,8.582 5.528,15.104 9.552,22.137 11.02,19.268 13.467,40.213 15.176,61.835 0.719,9.112 -1.619,17.791 -6.841,25.302 -5.248,7.549 -12.439,12.881 -16.473,21.374 -4.006,8.431 -5.456,17.761 -6.788,26.914 -1.649,11.34 -3.378,22.66 -5.331,33.952 -3.888,22.478 -7.698,44.99 -13.503,67.023 -2.253,8.552 -5.994,16.975 -15.808,18.823 C 9.586,105.757 0.95,100.911 -3.671,94.942 -9.748,87.093 -6.052,75.593 -5.221,66.529 -4.167,55.044 -3.216,43.55 -2.257,32.057 -1.365,21.38 -0.73,10.688 0,0" /></g><g
           transform="translate(283.6694,606.9863)"
           id="g138"><path
             id="path140"
             style="fill:#ffffff;fill-opacity:1;fill-rule:nonzero;stroke:none"
             d="m 0,0 c -3.475,12.672 -7.19,25.197 -11.101,37.741 -1.248,4.004 -4.286,9.967 -2.921,14.069 1.265,3.802 5.452,6.317 8.991,3.951 C -1.328,53.285 0.175,44.938 1.678,40.992 3.999,34.903 6.372,28.834 8.775,22.777 10.581,18.227 11.913,12.688 15.196,8.944 16.06,7.959 18.69,5.123 20.101,7.929 20.842,9.402 17.272,16.734 16.751,18.274 12.908,29.619 5.497,41.51 3.558,53.328 c -0.521,3.18 0.056,8.714 4.175,9.031 5.34,0.411 7.325,-8.656 8.762,-12.152 4.68,-11.391 9.578,-22.702 14.848,-33.832 4.605,-9.727 10.373,-20.94 5.154,-31.609 -2.443,-4.993 -6.184,-8.437 -6.511,-14.295 -0.282,-5.052 1.627,-9.868 3.652,-14.387 5.406,-12.064 10.968,-24.074 16.688,-35.993 4.817,-10.038 12.588,-22.032 14.48,-33.102 0.855,-4.999 -2.216,-5.507 -6.516,-5.798 -5.196,-0.352 -11.225,-1.034 -16.362,0.178 -7.853,1.852 -9.277,9.396 -10.964,16.274 -3.057,12.457 -6.714,24.751 -10.07,37.128 -1.414,5.215 -2.79,10.435 -3.616,15.781 -0.69,4.462 -1.058,8.688 -4.201,12.209 -5.645,6.322 -15.474,6.502 -21.54,12.927 -7.726,8.185 -8.883,20.657 -11.815,31.042 -1.902,6.737 -3.909,13.444 -5.844,20.172 -1.522,5.295 -4.872,12.306 -3.753,17.856 1.003,4.969 5.309,7.247 8.638,2.747 3.42,-4.623 5.103,-12.168 6.562,-17.638 1.759,-6.594 3.358,-13.229 5.119,-19.823 0.775,-2.9 1.334,-5.824 2.965,-8.355 C -4.433,-1.661 -3.38,-1.605 0,0" /></g><g
           transform="translate(579.1826,489.3936)"
           id="g142"><path
             id="path144"
             style="fill:#ffffff;fill-opacity:1;fill-rule:nonzero;stroke:none"
             d="m 0,0 c -2.906,0 -10.176,-1.227 -12.756,0.855 -2.449,1.976 -0.709,5.357 0.154,7.831 5.233,14.987 10.821,30.253 17.038,44.86 1.949,4.581 8.24,11.949 4.866,17.01 -1.358,2.035 -4.048,2.453 -5.527,4.512 -1.896,2.642 -1.599,5.643 -1.132,8.681 2.287,14.888 8.912,30.057 14.358,44.012 5.644,14.458 12.023,28.783 21.833,40.951 4.51,5.594 9.918,10.017 14.911,15.11 3.455,3.524 14.204,12.443 15.214,3.322 0.764,-6.904 -3.74,-15.165 -5.951,-21.677 -3.055,-8.996 -6.161,-17.975 -9.16,-26.99 C 48.483,122.354 44.19,105.927 38.709,89.839 32.546,71.753 29.263,53.554 24.645,35.114 22.387,26.1 19.486,17.265 16.813,8.37 15.718,4.723 14.883,1.746 11.042,0.431 9.491,-0.1 0,0.336 0,0" /></g><g
           transform="translate(512.7275,639.272)"
           id="g146"><path
             id="path148"
             style="fill:#ffffff;fill-opacity:1;fill-rule:nonzero;stroke:none"
             d="m 0,0 c -10.416,1.2 -20.353,2.703 -30.344,3.336 -4.673,0.296 -6.297,1.832 -8.156,6.229 -5.563,13.164 -5.885,26.989 -7.095,40.78 -1.861,21.218 -4.193,42.4 -5.684,63.642 -0.816,11.614 4.178,16.267 15.511,16.382 9.192,0.094 11.899,-2.342 13.631,-11.635 4.785,-25.665 9.736,-51.299 14.496,-76.968 C -5.766,31.661 -4.282,21.484 -2.494,11.362 -1.757,7.194 -0.686,3.086 0,0" /></g><g
           transform="translate(447.5664,578.3433)"
           id="g150"><path
             id="path152"
             style="fill:#ffffff;fill-opacity:1;fill-rule:nonzero;stroke:none"
             d="m 0,0 c -1.897,-2.63 -2.912,-5.448 -5.631,-7.401 -3.687,-2.65 -9.436,-4.769 -13.887,-5.401 -9.023,-1.282 -11.92,6.249 -14.574,13.345 -3.707,9.912 -7.1,19.937 -10.514,29.953 -1.371,4.018 -2.421,8.241 -3.827,12.194 -1.445,4.062 -3.991,6.101 -2.184,10.661 5.645,14.248 25.129,15.662 31.739,2.122 4.284,-8.777 6.783,-18.833 10.113,-28.027 C -5.469,18.348 -1.911,9.488 0,0" /></g><g
           transform="translate(410.5396,564.5195)"
           id="g154"><path
             id="path156"
             style="fill:#ffffff;fill-opacity:1;fill-rule:nonzero;stroke:none"
             d="m 0,0 c -0.316,-6.435 -3.378,-10.388 -9.103,-12.954 -4.631,-2.077 -10.663,-4.506 -15.204,-0.966 -3.115,2.428 -4.306,7.126 -5.775,10.584 -1.935,4.555 -3.865,9.112 -5.783,13.674 -3.764,8.958 -8.05,17.92 -10.635,27.311 -2.581,9.376 1.882,11.871 9.776,15.607 7.916,3.746 12.281,4.04 16.937,-3.958 C -10.833,33.915 -5.912,16.692 0,0" /></g><g
           transform="translate(471.3525,643.998)"
           id="g158"><path
             id="path160"
             style="fill:#ffffff;fill-opacity:1;fill-rule:nonzero;stroke:none"
             d="m 0,0 c -6.799,0 -10.934,-0.173 -15.048,0.039 -6.683,0.346 -9.695,-2.018 -9.393,-9.32 0.626,-15.12 3.714,-28.168 23.772,-34.542 3.863,-1.228 7.438,-3.366 12.049,-5.504 -0.863,-1.297 -1.505,-3.498 -2.793,-3.985 -6.371,-2.404 -12.863,-5.685 -19.414,-5.929 -3.486,-0.131 -8.967,4.557 -10.466,8.303 -6.119,15.29 -11.024,31.064 -16.443,46.637 -0.789,2.268 -2.534,4.34 -2.802,6.624 -0.644,5.488 -2.484,11.6 3.58,15.473 7.542,4.816 16.969,10.63 24.369,5.466 C -6.495,19.009 -4.501,8.884 0,0" /></g><g
           transform="translate(532.5869,541.2217)"
           id="g162"><path
             id="path164"
             style="fill:#ffffff;fill-opacity:1;fill-rule:nonzero;stroke:none"
             d="m 0,0 c 4.786,14.866 11.108,33.087 8.189,48.932 -1.379,7.493 -6.39,13.264 -10.687,19.312 -3.988,5.613 -8.193,11.023 -12.866,16.089 -5.237,5.677 -9.45,8.299 -17.129,9.328 -7.943,1.065 -15.935,1.701 -23.927,2.237 -4.685,0.314 -21.686,3.361 -24.046,0.51 -2.61,-3.157 0.844,-13.795 2.209,-17.069 6.179,-14.813 21.51,-14.759 34.527,-20.162 6.853,-2.844 7.934,-8.593 10.621,-14.93 1.277,-3.014 4.032,-6.451 1.318,-9.177 -1.701,-1.709 -6.493,-2.173 -8.596,-3.007 -3.216,-1.277 -6.329,-2.967 -9.459,-4.448 -1.38,-0.653 -7.469,-4.585 -8.678,-4.119 -3.262,1.257 1.753,6.401 3.275,7.757 4.021,3.58 14.511,2.936 16.824,7.389 0.943,1.814 -0.054,3.851 -0.869,5.515 -0.547,1.118 -1.74,3.076 -2.598,3.817 -2.978,2.571 -0.327,1.371 -3.103,0.724 -3.013,-0.701 -6.899,-4.284 -9.617,-5.787 -2.594,-1.435 -5.243,-2.804 -8.058,-3.762 -6.037,-2.058 -12.315,-2.069 -18.314,0.163 -0.09,-10.375 -6.393,-16.104 -16.173,-17.865 -5.04,-0.907 -10.869,-0.346 -15.706,-2.034 -4.546,-1.586 -3.615,-4.87 -6.41,-8.369 -1.386,-1.733 -3.27,-3.129 -5.4,-4.266 h -0.914 V 6.311 c -4.27,-2.069 -9.349,-3.18 -13.425,-3.846 -9.865,-1.611 -15.191,7.849 -19.667,14.982 -0.791,-17.529 6.298,-32.277 18.256,-44.716 3.032,-3.154 6.227,-6.141 9.365,-9.188 0.802,-0.777 4.568,-3.722 4.849,-4.817 0.289,-1.129 -1.889,-4.402 -2.324,-5.418 -1.463,-3.412 -1.654,-3.246 1.805,-4.747 0.388,-0.169 0.765,-0.327 1.141,-0.479 v -0.304 h 0.799 c 1.094,-0.405 2.19,-0.728 3.417,-0.884 4.933,-0.627 10.404,0.026 15.378,0.066 20.804,0.168 41.604,0.614 62.409,0.633 4.499,0.004 8.997,-0.007 13.496,-0.016 2.703,-0.006 5.407,-0.013 8.11,-0.016 3.481,-0.005 4.384,-0.827 5.731,1.769 2.905,5.597 -1.705,12.145 -6.766,13.957 C -10.288,-27.655 -4.625,-14.367 0,0" /></g><g
           transform="translate(809.6709,526)"
           id="g166"><path
             id="path168"
             style="fill:#ffffff;fill-opacity:1;fill-rule:nonzero;stroke:none"
             d="m 0,0 h -6.952 c -1.973,0 -3.624,-0.668 -4.954,-1.999 -1.334,-1.333 -1.999,-2.984 -1.999,-4.954 v -24.16 h -23.813 c -1.972,0 -3.623,-0.668 -4.954,-1.999 -1.334,-1.333 -1.999,-2.985 -1.999,-4.953 v -6.954 c 0,-1.971 0.665,-3.622 1.999,-4.953 1.331,-1.334 2.982,-1.999 4.954,-1.999 h 23.813 v -23.813 c 0,-1.972 0.665,-3.622 1.999,-4.953 1.33,-1.334 2.981,-1.999 4.954,-1.999 H 0 c 1.969,0 3.62,0.665 4.954,1.999 1.33,1.331 1.998,2.981 1.998,4.953 v 23.813 h 23.814 c 1.968,0 3.62,0.665 4.953,1.999 1.331,1.331 2,2.982 2,4.953 v 6.954 c 0,1.968 -0.669,3.62 -2,4.953 -1.333,1.331 -2.985,1.999 -4.953,1.999 H 6.952 v 24.16 c 0,1.97 -0.668,3.621 -1.998,4.954 C 3.62,-0.668 1.969,0 0,0 m 0,-3 c 1.167,0 2.067,-0.356 2.83,-1.118 0.766,-0.767 1.122,-1.668 1.122,-2.835 v -24.16 -3 h 3 23.814 c 1.166,0 2.067,-0.357 2.83,-1.118 0.765,-0.768 1.123,-1.668 1.123,-2.834 v -6.954 c 0,-1.168 -0.357,-2.067 -1.12,-2.832 -0.766,-0.764 -1.665,-1.12 -2.833,-1.12 h -23.814 -3 v -3 -23.813 c 0,-1.168 -0.355,-2.069 -1.119,-2.832 C 2.068,-79.38 1.168,-79.736 0,-79.736 h -6.952 c -1.17,0 -2.069,0.355 -2.835,1.122 -0.763,0.761 -1.118,1.66 -1.118,2.83 v 23.813 3 h -3 -23.813 c -1.17,0 -2.069,0.355 -2.835,1.122 -0.762,0.762 -1.118,1.661 -1.118,2.83 v 6.954 c 0,1.168 0.357,2.067 1.121,2.832 0.764,0.764 1.664,1.12 2.832,1.12 h 23.813 3 v 3 24.16 c 0,1.169 0.356,2.069 1.121,2.833 0.763,0.764 1.663,1.12 2.832,1.12 L 0,-3" /></g><g
           transform="translate(822.5527,408.9033)"
           id="g170"><path
             id="path172"
             style="fill:#ffffff;fill-opacity:1;fill-rule:nonzero;stroke:none"
             d="m 0,0 c -0.961,-7.478 -6.078,-11.98 -14.302,-12.496 -0.564,-0.058 -1.136,-0.089 -1.716,-0.089 -0.612,0 -1.215,0.039 -1.811,0.104 -8.692,0.637 -13.922,5.71 -14.511,14.069 -0.108,0.764 -0.183,1.538 -0.183,2.332 0,9.116 7.389,16.506 16.505,16.506 9.116,0 16.505,-7.39 16.505,-16.506 C 0.487,2.566 0.307,1.259 0,0 M -58.033,23.632 H -83.929 V 10.341 h 22.965 V -3.535 h -22.965 v -15.243 h 25.896 v -13.876 h -38.696 v 70.161 h 38.696 z m -55.308,-56.286 h -12.898 l -32.54,47.295 v -47.295 h -12.802 v 70.161 h 12.802 l 32.637,-47.59 v 47.59 h 12.801 z m -72.846,20.618 c -1.922,-4.431 -4.544,-8.275 -7.866,-11.53 -3.323,-3.259 -7.167,-5.815 -11.531,-7.671 -4.365,-1.857 -8.991,-2.786 -13.876,-2.786 -4.886,0 -9.512,0.929 -13.875,2.786 -4.365,1.856 -8.209,4.412 -11.531,7.671 -3.323,3.255 -5.946,7.099 -7.867,11.53 -1.923,4.43 -2.882,9.249 -2.882,14.462 0,5.21 0.959,10.031 2.882,14.462 1.921,4.429 4.544,8.273 7.867,11.531 3.322,3.257 7.166,5.814 11.531,7.671 4.363,1.856 8.989,2.784 13.875,2.784 4.885,0 9.511,-0.912 13.876,-2.734 4.364,-1.827 8.208,-4.35 11.531,-7.575 3.322,-3.225 5.944,-7.069 7.866,-11.531 1.92,-4.463 2.882,-9.331 2.882,-14.608 0,-5.213 -0.962,-10.032 -2.882,-14.462 m -115.941,-20.618 -15.439,29.119 h -2.541 v -29.119 h -12.802 v 70.161 h 20.815 c 2.604,0 5.179,-0.409 7.719,-1.221 2.541,-0.816 4.804,-2.069 6.792,-3.763 1.985,-1.694 3.581,-3.828 4.787,-6.401 1.205,-2.574 1.809,-5.617 1.809,-9.136 0,-4.561 -1.124,-8.535 -3.372,-11.922 -2.247,-3.387 -5.457,-5.797 -9.624,-7.231 l 16.123,-30.487 z m -44.948,56.286 h -25.896 V 10.341 h 22.965 V -3.535 h -22.965 v -15.243 h 25.896 v -13.876 h -38.697 v 70.161 h 38.697 z m -53.256,-44.364 c -1.238,-2.541 -2.931,-4.691 -5.081,-6.451 -2.149,-1.758 -4.641,-3.111 -7.475,-4.054 -2.834,-0.946 -5.815,-1.417 -8.942,-1.417 h -20.912 v 70.161 h 17.785 c 3.192,0 6.188,-0.409 8.99,-1.221 2.8,-0.816 5.228,-2.037 7.281,-3.666 2.051,-1.628 3.664,-3.632 4.837,-6.008 1.172,-2.38 1.759,-5.164 1.759,-8.355 0,-3.127 -0.538,-5.75 -1.612,-7.866 -1.076,-2.119 -2.559,-3.992 -4.447,-5.62 2.931,-1.499 5.276,-3.615 7.036,-6.352 1.759,-2.735 2.637,-6.254 2.637,-10.553 0,-3.191 -0.619,-6.057 -1.856,-8.598 m -68.987,-11.922 -5.961,45.144 -16.318,-45.144 h -11.824 l -16.319,45.144 -5.961,-45.144 h -13.582 l 9.381,70.161 h 13.191 l 18.86,-49.836 18.858,49.836 h 13.193 l 9.381,-70.161 z m -83.158,27.849 c 0,-4.236 -0.651,-8.144 -1.953,-11.725 -1.304,-3.584 -3.176,-6.679 -5.619,-9.284 -2.443,-2.607 -5.391,-4.626 -8.843,-6.059 -3.454,-1.432 -7.33,-2.15 -11.629,-2.15 -4.169,0 -7.98,0.702 -11.433,2.101 -3.453,1.401 -6.4,3.372 -8.843,5.911 -2.443,2.541 -4.333,5.604 -5.668,9.187 -1.336,3.582 -2.003,7.556 -2.003,11.922 v 42.409 h 12.801 V -4.609 c 0,-4.755 1.399,-8.537 4.202,-11.335 2.799,-2.801 6.513,-4.202 11.14,-4.202 4.691,0 8.37,1.431 11.041,4.299 2.672,2.866 4.007,6.645 4.007,11.335 v 42.019 h 12.8 z m -72.112,-27.849 h -12.899 l -32.541,47.295 v -47.295 h -12.801 v 70.161 h 12.801 l 32.639,-47.59 v 47.59 h 12.801 z m -86.178,31.245 c -0.127,-9.469 -7.047,-16.819 -15.915,-16.904 -6.719,-0.066 -12.921,4.575 -15.492,10.717 -1.003,2.131 -1.581,4.503 -1.581,7.015 0,9.115 7.39,16.505 16.505,16.505 9.116,0 16.506,-7.39 16.506,-16.505 0,-0.199 -0.023,-0.393 -0.029,-0.59 0,-0.081 0.007,-0.158 0.006,-0.238 M -5.93,45.386 v -4.073 c 0,-1.972 -0.668,-3.623 -1.998,-4.954 -1.334,-1.334 -2.985,-1.999 -4.954,-1.999 h -6.952 c -1.973,0 -3.624,0.665 -4.954,1.999 -1.334,1.331 -1.999,2.982 -1.999,4.954 V 65.126 H -50.6 c -1.972,0 -3.623,0.665 -4.954,1.999 -1.334,1.331 -1.999,2.982 -1.999,4.953 v 5.391 c -155.362,-1.117 -310.727,-1.886 -466.092,-2.625 -61.002,-0.291 -122.006,-0.213 -183.009,-0.336 -13.512,-0.027 -22.18,-8.674 -22.208,-21.982 -0.007,-3.435 0,-6.87 0,-8.377 -10.024,-4.889 -20.225,-7.303 -26.729,-13.561 -14.344,-13.802 -21.62,-31.333 -9.301,-53.552 5.962,-10.754 15.111,-18.177 26.912,-21.332 11.423,-3.054 11.492,-2.513 11.63,-14.336 0.081,-6.847 -1.461,-14.666 6.33,-18.513 4.438,-2.191 9.634,-3.994 14.492,-4 33.99,-0.044 67.981,0.462 101.971,0.715 13.927,0.104 27.855,0.017 42.643,0.017 v -3.424 h -0.137 v -37.876 c 43.193,17.608 111.95,28.997 189.397,28.997 78.05,0 147.271,-11.568 190.398,-29.411 0.002,13.417 0.07,25.473 -0.043,37.522 -0.035,3.759 0.573,6.023 5.216,6.116 1.19,0.024 2.382,0.059 3.573,0.085 1.152,2.485 2.532,4.923 4.154,7.31 2.207,3.252 4.765,6.35 7.675,9.294 2.91,2.943 5.994,5.644 9.251,8.104 3.258,2.461 6.582,4.595 9.973,6.407 3.391,1.81 6.693,3.229 9.909,4.258 l -0.08,-0.02 c 0.939,0.346 1.862,0.633 2.774,0.86 0.911,0.226 1.821,0.453 2.733,0.679 15.486,3.852 24.477,0.768 26.97,-9.254 0.653,-2.626 0.856,-5.62 0.612,-8.98 -0.219,-2.786 -0.764,-5.739 -1.639,-8.858 -0.75,-2.672 -1.741,-5.348 -2.945,-8.028 0.563,0.011 1.127,0.027 1.69,0.037 0.266,1.363 0.584,2.852 0.969,4.505 0.646,2.777 1.441,5.707 2.381,8.786 0.941,3.08 2.04,6.156 3.296,9.228 1.256,3.072 2.674,5.9 4.249,8.483 1.577,2.583 3.31,4.763 5.202,6.543 1.891,1.779 3.975,2.895 6.252,3.347 1.902,0.359 3.475,-0.018 4.72,-1.13 1.243,-1.113 2.146,-2.795 2.706,-5.046 0.427,-1.716 0.637,-3.711 0.636,-5.987 -0.004,-2.278 -0.221,-4.721 -0.652,-7.332 -0.622,-3.91 -1.527,-7.48 -2.716,-10.705 -1.189,-3.228 -2.589,-6.292 -4.2,-9.197 -0.228,-0.41 -0.466,-0.813 -0.7,-1.219 0.88,0.006 1.761,0.011 2.641,0.018 0.865,1.194 1.847,2.235 2.963,3.105 1.288,1.002 2.575,1.663 3.861,1.983 1.607,0.4 3.14,0.297 4.6,-0.307 1.459,-0.605 2.656,-1.872 3.592,-3.8 0.126,-0.277 0.226,-0.575 0.315,-0.882 2.269,0.011 4.539,0.023 6.808,0.035 0.099,0.633 0.198,1.263 0.301,1.882 0.25,1.513 0.543,2.965 0.879,4.358 0.148,0.776 0.384,1.376 0.705,1.797 0.322,0.422 0.708,0.759 1.157,1.014 0.448,0.253 0.978,0.413 1.587,0.48 0.61,0.067 1.303,0.138 2.08,0.218 l 1.668,0.159 -0.08,-0.02 c 1.325,0.16 2.327,0.251 3.004,0.279 0.676,0.024 1.147,-0.1 1.415,-0.374 0.267,-0.275 0.377,-0.718 0.33,-1.327 -0.048,-0.609 -0.166,-1.449 -0.354,-2.521 l 0.04,0.181 -0.121,-0.884 c -0.217,-1.42 -0.427,-3.038 -0.629,-4.85 -0.012,-0.103 -0.019,-0.207 -0.031,-0.31 2.403,0.018 4.805,0.036 7.206,0.06 -0.002,0.601 0.08,1.296 0.259,2.098 0.445,2.102 1.09,4.027 1.936,5.774 0.845,1.747 1.785,3.29 2.818,4.628 1.033,1.336 2.119,2.461 3.259,3.371 1.14,0.908 2.225,1.577 3.257,2.006 1.702,0.706 3.031,0.794 3.988,0.265 0.956,-0.53 1.589,-1.412 1.896,-2.644 0.266,-1.073 0.198,-2.34 -0.206,-3.807 -0.403,-1.466 -1.055,-2.682 -1.954,-3.644 l -0.401,-0.441 1.988,-0.103 c 0.302,-0.034 0.624,-0.077 0.939,-0.115 0.186,0.525 0.356,1.073 0.488,1.672 1.393,6.335 2.386,12.824 2.76,19.292 0.267,4.621 0.933,7.082 6.435,7.72 14.739,1.71 30.952,16.256 34.201,30.644 6.379,28.254 -7.498,46.778 -32.24,54.695" /></g><g
           transform="translate(606.1455,391.8389)"
           id="g174"><path
             id="path176"
             style="fill:#ffffff;fill-opacity:1;fill-rule:nonzero;stroke:none"
             d="m 0,0 c -7.609,-2.513 -15.815,1.62 -18.328,9.229 -2.513,7.61 1.619,15.816 9.229,18.329 0,0 -7.573,-8.536 -2.339,-16.054 0,0 -0.681,4.867 3.698,7.146 0,0 -4.752,-14.445 8.659,-18.346 z M 11.519,39.89 C 12.403,32.813 5.915,29.568 5.915,29.568 6.21,53.456 -12.369,53.161 -12.369,53.161 c 3.833,-2.949 8.257,-13.566 -2.949,-20.348 -0.165,-0.1 -0.328,-0.201 -0.487,-0.301 -17.194,-10.831 -9.089,-37.652 11.221,-38.338 0.253,-0.009 0.506,-0.013 0.761,-0.013 12.216,0 21.929,9.904 22.118,22.118 0.168,10.895 -6.776,23.611 -6.776,23.611" /></g></g></g></g></svg>